<svg version="1.2" xmlns="http://www.w3.org/2000/svg" viewBox="0 0 567 164" width="567" height="164">
	<title>logo-mublin-white</title>
	<style>
		.s0 { fill: #FFFFFF } 
	</style>
	<path id="Compound Path" class="s0" d="m62.1 55.9q7 0 13.7 1.9 6.8 2 11.7 5.9 5.2-3.4 11.6-5.6 6.4-2.2 15.4-2.2 6.5 0 12.8 1.7 6.2 1.7 11.1 5.4 4.9 3.6 7.8 9.7 2.9 6.1 2.9 14.8v53.8q-1.7 0.5-5.4 1-3.7 0.6-7.6 0.6-3.8 0-6.8-0.6-3-0.5-5-2-2.1-1.5-3.2-4.2-1.1-2.6-1.1-6.9v-40.9q0-5.1-2.9-7.4-2.9-2.3-7.9-2.3-2.3 0-5.1 1.1-2.7 1.1-4.1 2.3 0.2 0.7 0.2 1.3 0 0.6 0 1.1v56.9q-1.9 0.5-5.6 1-3.6 0.6-7.4 0.6-3.8 0-6.7-0.6-3-0.5-5.1-2-2-1.5-3.1-4.2-1.2-2.6-1.2-6.9v-40.9q0-5.1-3.1-7.4-3.2-2.3-7.6-2.3-3.1 0-5.3 0.9-2.2 1-3.8 1.8v60q-1.7 0.5-5.4 1-3.6 0.6-7.6 0.6-3.7 0-6.7-0.6-3-0.5-5.1-2-2-1.5-3.1-4.2-1.1-2.6-1.1-6.9v-51.6q0-4.6 1.9-7.4 2-2.7 5.4-5.1 5.8-4.1 14.5-6.7 8.6-2.5 18-2.5z"/>
	<path id="Compound Path" class="s0" d="m166.8 59.6q1.7-0.5 5.4-1 3.7-0.5 7.6-0.5 3.8 0 6.8 0.5 3 0.5 5 2.1 2.1 1.5 3.2 4.2 1.1 2.6 1.1 6.9v36.7q0 7 3.4 10 3.4 3 9.9 3 3.9 0 6.4-0.7 2.5-0.7 3.9-1.4v-59.8q1.7-0.5 5.3-1 3.7-0.5 7.6-0.5 3.8 0 6.8 0.5 3 0.5 5 2.1 2.1 1.5 3.2 4.2 1.1 2.6 1.1 6.9v51.9q0 8.6-7.2 12.8-5.9 3.8-14.2 5.8-8.3 1.9-18.1 1.9-9.2 0-17-2-7.7-2.1-13.4-6.3-5.6-4.3-8.7-11.1-3.1-6.7-3.1-16.3z"/>
	<path id="Compound Path" class="s0" d="m266.6 30.3q1.7-0.6 5.5-1.2 3.7-0.6 7.7-0.6 3.7 0 6.7 0.6 3 0.5 5.1 2 2 1.5 3 4.2 1.1 2.6 1.1 6.9v16.8q4.2-1.7 8.1-2.4 3.8-0.7 8.4-0.7 8.2 0 15.6 2.9 7.3 2.9 13 8.4 5.6 5.6 8.9 13.8 3.2 8.2 3.2 19 0 11.1-3.3 19.4-3.4 8.3-9.3 13.7-6 5.5-14.6 8.3-8.7 2.8-19.1 2.8-11.3 0-19.1-2.6-7.9-2.7-13.4-6.6-7.5-5.3-7.5-13.7zm40 91.1q7.9 0 12.2-5.4 4.4-5.4 4.4-16 0-10.7-4.5-16-4.4-5.3-11.9-5.3-3.4 0-5.9 0.7-2.5 0.7-5.4 2v37.3q1.9 1.2 4.5 1.9 2.7 0.8 6.6 0.8z"/>
	<path id="Compound Path" class="s0" d="m396.7 141.3q-1.9 0.4-5.6 1-3.7 0.6-7.4 0.6-3.8 0-6.8-0.6-3-0.5-5-2-2.1-1.5-3.2-4.2-1.1-2.6-1.1-6.9v-99.1q1.9-0.4 5.6-1 3.6-0.6 7.4-0.6 3.8 0 6.7 0.6 3 0.5 5.1 2 2 1.5 3.1 4.2 1.2 2.6 1.2 6.9z"/>
	<path id="Compound Path" class="s0" d="m166.8 59.6q1.7-0.5 5.4-1 3.7-0.5 7.6-0.5 3.8 0 6.8 0.5 3 0.5 5 2.1 2.1 1.5 3.2 4.2 1.1 2.6 1.1 6.9v36.7q0 7 3.4 10 3.4 3 9.9 3 3.9 0 6.4-0.7 2.5-0.7 3.9-1.4v-59.8q1.7-0.5 5.3-1 3.7-0.5 7.6-0.5 3.8 0 6.8 0.5 3 0.5 5 2.1 2.1 1.5 3.2 4.2 1.1 2.6 1.1 6.9v51.9q0 8.6-7.2 12.8-5.9 3.8-14.2 5.8-8.3 1.9-18.1 1.9-9.2 0-17-2-7.7-2.1-13.4-6.3-5.6-4.3-8.7-11.1-3.1-6.7-3.1-16.3z"/>
	<path id="Compound Path" class="s0" d="m414.3 35.4q0-6.5 4.3-11 4.4-4.4 11.6-4.4 7.1 0 11.5 4.4 4.3 4.5 4.3 11 0 6.5-4.3 10.9-4.4 4.5-11.5 4.5-7.2 0-11.6-4.5-4.3-4.4-4.3-10.9zm30.4 105.9q-1.9 0.4-5.6 1-3.7 0.6-7.4 0.6-3.8 0-6.8-0.6-3-0.5-5-2-2.1-1.5-3.2-4.2-1.1-2.6-1.1-6.9v-69.6q1.9-0.3 5.6-0.9 3.7-0.6 7.4-0.6 3.8 0 6.8 0.5 3 0.5 5 2.1 2.1 1.5 3.2 4.2 1.1 2.6 1.1 6.9z"/>
	<path id="Compound Path" class="s0" d="m515.8 88.9q0-5.3-3-7.8-3-2.5-8.1-2.5-3.5 0-6.8 0.9-3.3 0.8-5.7 2.5v59.3q-1.7 0.5-5.4 1-3.7 0.6-7.6 0.6-3.8 0-6.8-0.6-2.9-0.5-5-2-2.1-1.5-3.2-4.2-1.1-2.6-1.1-6.9v-51.3q0-4.6 2-7.5 2-2.9 5.4-5.3 5.8-4.1 14.6-6.7 8.8-2.5 19.6-2.5 19.3 0 29.7 8.4 10.4 8.5 10.4 23.5v53.5q-1.7 0.5-5.4 1-3.7 0.6-7.6 0.6-3.7 0-6.7-0.6-3-0.5-5.1-2-2-1.5-3.1-4.2-1.1-2.6-1.1-6.9z"/>
</svg>